<svg xmlns="http://www.w3.org/2000/svg" viewBox="0 0 32 32" width="32" height="32">
  <defs>
    <linearGradient id="grassGradient" x1="0%" y1="0%" x2="0%" y2="100%">
      <stop offset="0%" style="stop-color:#4CAF50;stop-opacity:1" />
      <stop offset="100%" style="stop-color:#2E7D32;stop-opacity:1" />
    </linearGradient>
  </defs>
  
  <!-- Background circle -->
  <circle cx="16" cy="16" r="15" fill="#f8f9fa" stroke="#e0e0e0" stroke-width="1"/>
  
  <!-- Grass blades -->
  <path d="M8 24 Q10 18 12 12 Q14 8 16 6" stroke="url(#grassGradient)" stroke-width="2.5" fill="none" stroke-linecap="round"/>
  <path d="M12 24 Q14 20 16 14 Q18 10 20 8" stroke="url(#grassGradient)" stroke-width="2.5" fill="none" stroke-linecap="round"/>
  <path d="M16 24 Q18 19 20 13 Q22 9 24 7" stroke="url(#grassGradient)" stroke-width="2.5" fill="none" stroke-linecap="round"/>
  <path d="M6 25 Q8 21 10 16 Q12 12 14 10" stroke="url(#grassGradient)" stroke-width="2" fill="none" stroke-linecap="round"/>
  <path d="M20 25 Q22 21 24 16 Q26 12 28 10" stroke="url(#grassGradient)" stroke-width="2" fill="none" stroke-linecap="round"/>
  
  <!-- Small accent blades -->
  <path d="M10 25 Q11 22 12 18" stroke="#66BB6A" stroke-width="1.5" fill="none" stroke-linecap="round"/>
  <path d="M18 25 Q19 22 20 18" stroke="#66BB6A" stroke-width="1.5" fill="none" stroke-linecap="round"/>
  <path d="M14 25 Q15 23 16 20" stroke="#66BB6A" stroke-width="1.5" fill="none" stroke-linecap="round"/>
</svg>